<?xml version="1.0" encoding="UTF-8"?>
<!DOCTYPE svg PUBLIC "-//W3C//DTD SVG 1.1//EN" "http://www.w3.org/Graphics/SVG/1.1/DTD/svg11.dtd">
<!-- Creator: CorelDRAW -->
<svg xmlns="http://www.w3.org/2000/svg" xml:space="preserve" width="4.91405in" height="3.79987in" version="1.1" style="shape-rendering:geometricPrecision; text-rendering:geometricPrecision; image-rendering:optimizeQuality; fill-rule:evenodd; clip-rule:evenodd"
viewBox="0 0 4266.42 3299.08"
 xmlns:xlink="http://www.w3.org/1999/xlink">
 <defs>
  <style type="text/css">
   <![CDATA[
    .fil6 {fill:#0B0B0D}
    .fil3 {fill:#262A45}
    .fil2 {fill:#353C59}
    .fil5 {fill:#BD5F05}
    .fil4 {fill:#C7E0FD}
    .fil0 {fill:#DBECFC}
    .fil1 {fill:#DE7803}
    .fil8 {fill:#F59B75}
    .fil7 {fill:#FDBEA4}
   ]]>
  </style>
 </defs>
 <g id="Layer_x0020_1">
  <metadata id="CorelCorpID_0Corel-Layer"/>
  <g id="_105553411789056">
   <path class="fil0" d="M2554.92 1519.62c-3.77,38.74 -27.91,33.8 -56.03,102.81 -20.49,50.27 -12.57,85.78 -12.67,144.13 -373.36,-81.96 -548.21,318.59 -356.21,543.67 112.57,131.96 216.97,118.06 426.96,119.26l1094.18 0.18c186.57,0 358.58,25.87 484.27,-69.03 167.09,-126.15 186.18,-409.21 -11.92,-543.68 -79.98,-54.29 -102.01,-52.84 -211.49,-64.55 -39.45,-50.11 -50.93,-84.2 -115.01,-116.69 -77.9,-39.5 -121.71,-21.4 -205.51,-9.97 -17.64,-179.36 -169.43,-310.91 -353.49,-303.25 -92.71,3.86 -111.04,31.66 -173.66,54.27 2.65,-56.85 6.51,-73.77 -9.73,-95.9 -4.3,144.48 14.2,77.36 -55.72,160.21 -43.72,51.81 -45.91,80.41 -77.45,132.33 5.05,-25.81 -93.96,-97.08 -161.49,-104.56 -151.4,-16.76 -160.86,62.8 -205.03,50.76z"/>
   <path class="fil1" d="M637.6 678.04c0.05,18.87 1.25,1.47 -1.33,16.35 -0.33,1.89 -2.01,7.14 -2.31,6.29 -0.27,-0.78 -2.05,3.54 -3.16,5.25 -13.61,32.46 -47.62,60.17 -93.85,52.65 -43.81,-7.13 -60.86,-38.51 -68.97,-81.63 -82.06,10.84 -105.34,-6.97 -175.18,36.35 -77.03,47.78 -58,89.13 -105.31,113.57 8.62,52.08 -199.39,291.44 -186.97,373.79 8.61,57.12 161.38,153.91 225.84,201.79 24.95,18.53 61.46,41.53 80.38,61.74 56.21,-5.87 50.63,-51.13 96.41,-56.47 -10.93,-12.44 -17.76,-16.33 -26.83,-24.64 -21.03,-19.26 -17.59,-11.23 -25.16,-39.86 -23.19,-2.42 -164.17,-149.38 -176.65,-170.07l165.11 -156.02 17.48 29.37 4.81 -36.71c-8.02,25.86 56.93,173.96 69.27,209.03 47.81,135.84 107.89,74.25 183.19,107.28 90.92,39.88 37.9,132.91 85.07,204.11l110.68 107.23c23.1,22.8 21.83,31.77 54.08,21.26 14.86,-68.41 -41.01,-472.3 -44.3,-584.81 103.84,39.39 197.41,221.1 260.61,115.45 29.31,-48.99 148.88,-231.26 160.58,-270.46 1.23,-24.82 6.41,-9.04 -11.5,-26.86 -5.68,-5.64 -14.97,-11.02 -23.97,-19.78 -19.92,-19.41 -19.76,-26.81 -46.62,-29.41 -41.02,48.9 -88.67,117.57 -130.99,157.93 -16.1,-11.74 -6.36,-3.57 -19.24,-18.43 -48.66,-56.13 -150.32,-212.12 -201.97,-261.82 -55.37,-53.28 -78.23,-25.13 -124.11,-46.49l-45.1 4.05z"/>
   <path class="fil2" d="M310.44 3167.8l14.19 -18.53c23.5,31.23 41.51,21.25 73.71,32.51 -1.27,-76.75 67.33,-347.91 90.27,-432.45 22.43,-82.68 35.77,-120.64 70.62,-190.15 15.2,-30.32 25.83,-59.29 36.57,-93.4 5.52,-17.52 9.86,-32.32 14.8,-50.6 9.3,-34.45 5.75,-35.53 21.64,-52.86 -2.35,-20.79 42.66,-644.41 47.94,-660.59 -65.2,1.36 -129.55,3.72 -194.73,-1.44 -48.63,-3.86 -119.03,-20.26 -160.88,-19.51 24.16,257.49 19.45,523.56 46.27,780.59 5.38,51.58 -29.74,93.17 -47.83,144.73 -86.59,246.84 -8.97,459.74 -12.57,561.7z"/>
   <path class="fil3" d="M680.17 1701.73c-5.28,16.19 -50.29,639.81 -47.94,660.59 -3.6,35.78 13.92,75.37 12.99,115.11 -3.16,135.21 -23.4,161.08 41.7,340.82 24.28,67.02 49.61,126.11 81.14,187.18 15.43,29.89 31.91,58.44 46.44,84.04 9.07,15.99 16.11,27.51 24.09,40.97l32.03 45.22c20.86,-16.95 -6.34,-1.74 33.43,-8.99 17.02,-3.1 27.01,-6.03 40.76,-10.34 -55.04,-194.74 -106.21,-515.84 -73.29,-720.01 20.31,-125.98 30.79,-254.27 27.88,-386.39 -2.91,-132.14 -27.51,-253.08 -35.32,-377.59 -58.09,18.27 -122.36,23.57 -183.92,29.39z"/>
   <path class="fil4" d="M2554.92 1519.62c44.17,12.04 53.63,-67.52 205.03,-50.76 67.53,7.48 166.54,78.74 161.49,104.56 31.54,-51.92 33.73,-80.52 77.45,-132.33 69.92,-82.85 51.42,-15.73 55.72,-160.21 1.84,-83.87 -83.07,-170.82 -136.26,-201.11 -80.47,-45.82 -189.1,-49.35 -273.79,-7.45 -151.03,74.73 -228.66,296.76 -89.64,447.3z"/>
   <path class="fil0" d="M1709.17 120.17c-40.97,-2.57 -62.76,-14.55 -101.88,8.16 -57.15,33.19 -8.12,45.31 -70.66,62.33 -35.9,9.77 -67.4,36.85 -33.01,71.64 24.2,24.46 369.38,12.24 415.68,12.24 89.26,0 471.11,9.42 522.44,-7.17 38.19,-66.42 -4.5,-74.07 -65.93,-78.77 -22.04,-22.65 -33.65,-48.81 -74.18,-58.35 -48.54,-11.43 -73.57,10.11 -107.47,20.99 -38.87,-53.56 -79.9,-68.57 -166.16,-64.13 -34.44,-33.13 -67.25,-96.09 -173.19,-86.02 -98.96,9.4 -122.24,84.15 -145.64,119.08z"/>
   <path class="fil0" d="M3450.43 479.21c-96.21,-8.2 -113.43,-1.94 -154.34,69.74 -36.18,4.15 -90.99,15.24 -59.74,67.59 15.61,26.15 87.87,17.63 124.95,17.62l724.64 -0c60.27,0.25 86.62,12.78 107.68,-33.46 -2.1,-34.25 -7.83,-43.51 -43.18,-48.57 -58.08,-8.31 -29.58,-0.86 -65.88,-36.82 -49.89,-49.43 -98.23,-21.75 -150.28,-2.34 -29.63,-46.52 -81.37,-71.32 -167.2,-65.27 -47.85,-44.96 -71.87,-96.58 -173.67,-86.59 -63.82,6.26 -126.97,57.75 -142.99,118.1z"/>
   <path class="fil5" d="M357.12 1046.49l-5.94 296.73c7.57,28.62 4.13,20.59 25.16,39.86 9.07,8.31 15.89,12.2 26.83,24.64 46.71,25.83 67.04,36.67 65.61,69.09l-67.94 -0.2c12.12,34.15 59.72,92.22 42.87,126.56 -39.19,6.31 -90.98,-90.27 -94.29,-101.05 -9.96,7.47 -8.31,3.1 -20.43,14.9 5.42,60.44 -14.06,93.96 -4.42,163.77 41.85,-0.75 112.26,15.65 160.88,19.51 65.17,5.16 129.53,2.81 194.73,1.44 61.55,-5.81 125.83,-11.12 183.92,-29.39l0.14 -13.66c-32.24,10.51 -30.98,1.55 -54.08,-21.26l-110.68 -107.23c-47.17,-71.2 5.85,-164.24 -85.07,-204.11 -75.3,-33.03 -135.38,28.57 -183.19,-107.28 -12.34,-35.07 -77.28,-183.16 -69.27,-209.03l-4.81 36.71z"/>
   <path class="fil6" d="M187.51 826.87c47.31,-24.44 28.29,-65.8 105.31,-113.57 69.84,-43.32 93.12,-25.51 175.18,-36.35 0.1,-33.16 4.02,-102.82 -1.25,-131.88 -9.12,-50.27 -55.25,-48.51 -33.18,-88.33 33.66,-52.9 0.9,50.95 112.96,-112.85 32.27,-47.17 104.24,-60.86 148.48,-11.65 83.59,92.97 31.67,257.9 -57.77,286.3l0.36 59.5 45.1 -4.05c25.92,-61.22 118.93,-145.2 91.13,-311.29 -28.12,-168.01 -92.69,-112.59 -147.53,-157.36 -20.13,-16.43 -29.87,-34.26 -67.19,-29.48 -97.09,12.43 -194.92,111.85 -231.15,174.13 -49.81,85.63 -17.96,97.49 -42.43,160.28 -16.96,43.55 -83.08,60.92 -105.85,97.68 -0.15,58.74 21.19,19.29 29.17,72.46 -18.1,43.15 -52.38,31.68 -70.74,79.71 7.1,34.64 30.31,40.81 49.39,66.75z"/>
   <path class="fil7" d="M468 676.94c8.11,43.12 25.16,74.5 68.97,81.63 46.22,7.53 80.23,-20.19 93.85,-52.65l1.49 -27.14c-72.38,-6.39 -132.12,-53.46 -152.44,-105.59 39.76,25.13 93.08,61.39 157.38,45.34 89.44,-28.4 141.36,-193.33 57.77,-286.3 -44.24,-49.21 -116.21,-35.52 -148.48,11.65 -112.06,163.8 -79.3,59.96 -112.96,112.85 -22.06,39.82 24.07,38.06 33.18,88.33 5.27,29.06 1.34,98.72 1.25,131.88z"/>
   <path class="fil4" d="M3020.89 1976.1l220.3 0.22c-9.99,36.06 -55.14,96.03 -74.83,124.97 -17.44,25.65 -66.25,91.98 -76.86,120.39 15.89,11.48 26.73,21.36 47.17,27.15l216.16 -327.1 -236.74 -3.02c4.5,-56.03 99.08,-179.09 114.41,-247.01l-51.08 -23.98c-28.81,57.97 -54.55,107.35 -80.03,161.71 -16.5,35.2 -75.22,139.83 -78.5,166.67z"/>
   <path class="fil6" d="M870.62 3175.66c-7.52,45.67 -24.88,64.59 -18.41,113.38 36.79,16.75 213.85,8.24 267.83,4.88 -10.57,-52.06 -56.09,-38.49 -97.1,-57.92 -30.07,-14.24 -55.22,-57.5 -78.13,-79.66 -13.75,4.31 -23.74,7.24 -40.76,10.34 -39.77,7.25 -12.57,-7.96 -33.43,8.99z"/>
   <path class="fil6" d="M310.44 3167.8c-17.83,49.67 -44.79,54.19 -34.48,126.38l266.16 0.65c-8.76,-41.65 -36.89,-39.45 -76.43,-51.62 -38.68,-11.91 -44.25,-34.37 -67.35,-61.42 -32.2,-11.26 -50.21,-1.28 -73.71,-32.51l-14.19 18.53z"/>
   <path class="fil7" d="M1159.01 842.8c26.87,2.6 26.7,10 46.62,29.41 9,8.77 18.3,14.14 23.97,19.78 17.91,17.81 12.73,2.04 11.5,26.86 25.12,-21.05 58.44,-65.89 79.52,-90.77 15.16,-17.89 21.54,-26.82 39.8,-47.1 17.62,-19.58 29.24,-30.32 20.47,-61.71 -48.15,-9.72 -77.57,41.53 -113.75,59.11l-17.08 -59.44c-56.57,5.69 -38.05,44.36 -91.06,123.86z"/>
   <path class="fil7" d="M306.75 1464.18c1.44,1.38 4.05,1.01 4.72,3.66 0.66,2.59 3.62,2.83 4.47,3.75 21.56,23.21 13.52,14.96 13.03,45.42 12.12,-11.79 10.47,-7.43 20.43,-14.9 3.31,10.78 55.1,107.36 94.29,101.05 16.85,-34.34 -30.74,-92.41 -42.87,-126.56l67.94 0.2c1.43,-32.43 -18.9,-43.27 -65.61,-69.09 -45.78,5.34 -40.2,50.6 -96.41,56.47z"/>
   <polygon class="fil4" points="2791.4,2654.88 2850.33,2656.12 2850.94,2525.79 2793.54,2524.57 "/>
   <polygon class="fil4" points="2791.93,2980.51 2849.22,2981.16 2851.14,2851.11 2792.61,2849.96 "/>
   <polygon class="fil4" points="3466.15,2979.85 3523.12,2980.89 3525.5,2850.85 3467.13,2850.12 "/>
   <polygon class="fil4" points="2454.49,2978.34 2513.19,2979.36 2514.09,2852.94 2455.1,2851.01 "/>
   <polygon class="fil4" points="3465.91,2653.99 3524.03,2656 3524.96,2526.03 3468.05,2525.18 "/>
   <polygon class="fil4" points="3804.28,2655.8 3858.82,2656.24 3863.28,2525.87 3803.39,2526.47 "/>
   <polygon class="fil4" points="3129.37,2977.99 3187.75,2979.73 3188.31,2851.95 3129.59,2852.02 "/>
   <polygon class="fil4" points="3803.44,2977.58 3862.19,2980.37 3861.74,2850.36 3806.19,2849.3 "/>
   <polygon class="fil4" points="2455.46,2655.86 2511.04,2656.34 2514.05,2527.77 2455.62,2525.96 "/>
   <polygon class="fil4" points="3130.15,2655.37 3184.82,2656.54 3188.71,2526.59 3130.19,2526.84 "/>
   <path class="fil8" d="M630.81 705.93c1.11,-1.71 2.88,-6.04 3.16,-5.25 0.29,0.86 1.98,-4.39 2.31,-6.29 2.58,-14.88 1.38,2.52 1.33,-16.35l-0.36 -59.5c-64.3,16.05 -117.63,-20.21 -157.38,-45.34 20.32,52.13 80.06,99.2 152.44,105.59l-1.49 27.14z"/>
  </g>
 </g>
</svg>
